<svg id="圖層_1" data-name="圖層 1" xmlns="http://www.w3.org/2000/svg" viewBox="0 0 485 177"><defs><style>.cls-1{fill:#d60c18;}.cls-2{fill:#fff;}</style></defs><rect class="cls-1" width="485" height="177"/><rect class="cls-2" x="34.63" y="50.95" width="65.55" height="2.05"/><rect class="cls-2" x="147.74" y="50.95" width="21.13" height="2.05"/><rect class="cls-2" x="204.63" y="50.95" width="13.61" height="2.05"/><rect class="cls-2" x="237.85" y="50.95" width="212.52" height="2.05"/><rect class="cls-2" x="34.63" y="87.03" width="46.42" height="2.05"/><rect class="cls-2" x="114.02" y="87.03" width="7.98" height="2.05"/><rect class="cls-2" x="152.59" y="87.03" width="61.96" height="2.05"/><rect class="cls-2" x="240.45" y="87.03" width="25.65" height="2.05"/><rect class="cls-2" x="283.26" y="87.03" width="13.99" height="2.05"/><rect class="cls-2" x="406.24" y="87.03" width="44.13" height="2.05"/><rect class="cls-2" x="34.63" y="101.02" width="46.42" height="2.05"/><rect class="cls-2" x="110.27" y="101.02" width="21.12" height="2.05"/><rect class="cls-2" x="177" y="101.02" width="37.55" height="2.05"/><rect class="cls-2" x="242.8" y="101.02" width="54.45" height="2.05"/><rect class="cls-2" x="406.24" y="101.02" width="44.13" height="2.05"/><rect class="cls-2" x="34.63" y="110.02" width="29.66" height="2.05"/><rect class="cls-2" x="106.52" y="110.02" width="30.51" height="2.05"/><rect class="cls-2" x="192.78" y="110.02" width="21.76" height="2.05"/><rect class="cls-2" x="245.14" y="110.02" width="52.11" height="2.05"/><rect class="cls-2" x="406.24" y="110.02" width="44.13" height="2.05"/><rect class="cls-2" x="34.63" y="123.37" width="32.18" height="2.05"/><rect class="cls-2" x="96.66" y="123.37" width="52.11" height="2.05"/><rect class="cls-2" x="193.89" y="123.37" width="20.66" height="2.05"/><rect class="cls-2" x="242.8" y="123.37" width="207.57" height="2.05"/><path class="cls-2" d="M356.53,86.41c.25-.27.47-.77.91-.85,6.82-.17,11.52-.25,18.41-.22.75-.52,1.79-.3,2.7-.44l9-.08c.74-.47.19-1.57.46-2.31.3-1.46-.85-4,1.24-4.48,1-.14,2.45-.25,3,.93v5.53l.19.27c4,.17,7.75-.08,11.49.19.16.14.44.22.52.47.06.41,0,.88-.47,1-3.57.25-7.5,0-11.21.19-.08.14-.3,0-.39.14l-.19.33c-.13,2.56,0,4.7-.08,7.31l.27.33,9.43.14c.28.27.74.63.47,1.13l-.47.46-9.48.11-14.18,0c-.33-.25-.8-.5-.61-1a1.16,1.16,0,0,1,.94-.6l8.82-.06c1-.35.3-1.7.6-2.39V87l-.41-.33c-3.71,0-7.2,0-10.88-.06a.92.92,0,0,0-.58-.19,1.79,1.79,0,0,1-1.13.66l-16.76.14a9.81,9.81,0,0,1-1.05-.22"/><path class="cls-2" d="M315.23,78.81a36.43,36.43,0,0,1,.14,4.57l.44.33c2.44.27,4.92-.28,7.25.19.33.28.3.55.22.93a.86.86,0,0,1-.79.47l-14.79.11-5.94,0c-.33-.09-.47-.33-.66-.61,0-.35.09-.82.52-.9,2.78-.17,6,0,8.91-.14a.76.76,0,0,0,.55-.52c.41-1.74-1.13-4.92,1.56-5.28C313.58,78,314.71,77.83,315.23,78.81Z"/><path class="cls-2" d="M374.15,80a.76.76,0,0,1,.52.39.84.84,0,0,1-.41,1.12l-1.37.14-13.53-.08c-.3-.08-.46-.33-.66-.58a.86.86,0,0,1,.33-.88c1.68-.55,3.6,0,5.34-.19C367.47,79.9,370.93,79.81,374.15,80Z"/><path class="cls-2" d="M310.34,86.07a1.41,1.41,0,0,1,.52,1.54c-.19,1.35-2.39,2.56-.91,4,.55,1.32,2.15,2.47,2.56,3.74.11.16-.11.41-.11.6a1.45,1.45,0,0,1-1.6.47c-1.1-.91-1.92-2.09-3-3a1.32,1.32,0,0,0-.88.8c-1.24,1.51-2.36,3.57-4.15,4.34a1.55,1.55,0,0,1-1.18-.71l.05-.66c2.67-3.36,4.07-7.23,5.94-10.89A2.25,2.25,0,0,1,310.34,86.07Z"/><path class="cls-2" d="M321,87.47c.11,1.41-1.07,2.45-1.59,3.69a23.94,23.94,0,0,0,2.63,5.41c.2.33,0,.63-.19.94a1.85,1.85,0,0,1-1.51.33c-1.05-.8-1.84-2.31-2.83-3.25-1.24.69-1.43,3.33-3.44,2.31a1,1,0,0,1-.38-1.26,29.19,29.19,0,0,0,3.49-8.44,2.14,2.14,0,0,1,1.37-.91C319.52,86.37,320.59,86.48,321,87.47Z"/><path class="cls-2" d="M374,91.28c.28.16.72.33.72.74a1.13,1.13,0,0,1-.66.91l-.8.08H359.42a2.06,2.06,0,0,1-.72-.53,1,1,0,0,1,.66-1.2l.33-.06Z"/><path class="cls-2" d="M373.82,96.88a1.18,1.18,0,0,1,.66.55.78.78,0,0,1-.14.77,1.12,1.12,0,0,1-1.07.33l-14.1,0a.87.87,0,0,1-.41-1.13c.22-.38.68-.38,1.07-.47C364.53,96.8,369,96.8,373.82,96.88Z"/><path class="cls-2" d="M314.82,97.56c1.07,1.13.16,2.34.55,3.77.16.27.52.13.77.24h6.92c.28.14.69.25.74.61a1,1,0,0,1-.65,1l-6.55.14c-.46.16.06.52.08.79,1.85,2.45,4.13,3.93,6.6,5.72.28.58-.16,1-.6,1.32h-1.13a61.62,61.62,0,0,1-6.51-4.67l-.22.13a52.47,52.47,0,0,1,.27,8.83c-.52,1-1.76,1.07-2.78,1a1.74,1.74,0,0,1-1.31-1l-.14-.85a43.58,43.58,0,0,1,.6-8.58c-.6-.5-.63.52-1.12.8,0,.33-.42.3-.47.6-1.29,1.24-2.42,2.89-4,4,0,.42-.55.42-.71.66-1,.83-2.17,2.51-3.77,1.65a.93.93,0,0,1-.24-.85c.19-.49.79-.85,1.23-1.18a31.92,31.92,0,0,0,6.54-8c0-.14,0-.3-.14-.38-2.52-.17-5,0-7.53-.2-.27-.24-.57-.74-.24-1.12l.57-.33,8.8-.09c.25,0,.47-.24.58-.44.24-1.37-.64-3.29,1-3.95C312.89,97,314.13,96.85,314.82,97.56Z"/><path class="cls-2" d="M386.22,98.53c.9.83.16,2.12.38,3.25,0,4-.05,7.39.08,11.15.2.47.72.55,1.1.72h5.88c1.76-.47,2.53-2.14,2.92-3.77a2.27,2.27,0,0,1,1.7-1.12,2.64,2.64,0,0,1,2.45,1.07,5.14,5.14,0,0,1-2.26,4.62c-3.65,1.54-8.52.63-12.58.79-1.24-.16-2.64-.6-3.11-1.86l-.14-.72c.06-4.26.14-9.18.19-13.52.17-.64.86-.86,1.41-1A2.89,2.89,0,0,1,386.22,98.53Z"/><path class="cls-2" d="M393.28,101a21.66,21.66,0,0,1,2.89,4.7,1.62,1.62,0,0,1-.33,1.32,3.14,3.14,0,0,1-2.37.71c-2.39-.35-1.62-3.19-2.72-4.67-.35-1.46-2-2.45-1.7-4,.38-.66,1.29-.63,2-.52A14.64,14.64,0,0,1,393.28,101Z"/><path class="cls-2" d="M401.77,102.44c1.27,1.51,2.53,3,3.63,4.56a1.87,1.87,0,0,1-.33,1.7,3.23,3.23,0,0,1-2.83.66c-1.26-.69-1.32-2.2-1.84-3.35a31.45,31.45,0,0,0-2.92-4.56,1.18,1.18,0,0,1,.28-1.19,2.07,2.07,0,0,1,1.57-.19C400.34,100.51,401,101.75,401.77,102.44Z"/><path class="cls-2" d="M379.62,101.58a2.1,2.1,0,0,0-1.4-.74c-.5.17-1.19.14-1.38.8a21.69,21.69,0,0,1-2,7.12c-.19.3-.35.77-.66.6-.66-2.61,1.46-7.14-2.58-7.58h-8c-1.16,0-2.59-.2-3.58.46a3.18,3.18,0,0,0-1.32,1.84l-.13,9,.27.71a3.46,3.46,0,0,0,1.84,1.18,86.92,86.92,0,0,0,10.5.14l1.57-.52a2.91,2.91,0,0,0,1.51-2.45,5.89,5.89,0,0,0,2.31.33c2.2-.68,1.79-3.27,2.39-5C379.18,105.54,379.89,103.59,379.62,101.58ZM370,113.26l-.33.25-6.79-.05-.13-.14c0-3.08,0-6.49.08-9.43.08-.33.47-.22.71-.33l6.35.06.19.19Z"/><path class="cls-2" d="M342.74,113.06a3.54,3.54,0,0,1-1.87-.27l-.11-6.71.25-.33c2.39-.38,4.81-.08,7.26-.27.35-.11.33-.5.41-.8s-.41-.39-.61-.58l-6.54-.08c-.27-.08-.74,0-.77-.47v-7c.11-.19.31-.22.44-.33l6.55,0,.6-.28c.06-.24.41-.44.19-.71,0-.33-.41-.42-.6-.61l-6.85,0-.33-.28c0-2.33-.13-4.75.11-7l.28-.22,7.91-.11c.39-.16.44-.58.66-.88l-.52-.58-9.56-.13-.2-.14A35.09,35.09,0,0,1,343.26,81a2,2,0,0,0,.72-1.92,3,3,0,0,0-2.45-1c-1.84.08-2.2,2.17-3.08,3.35-.71,1.29-1.84,2.42-2.11,3.9l-7.34.06-.11-.14c.52-1.87,1.81-3.44,2.64-5.2l.05-.79A1.86,1.86,0,0,0,330.13,78c-1-.13-2.15-.16-2.7.8a39.21,39.21,0,0,1-6.07,12.92,1.12,1.12,0,0,0,.19,1.07,1.85,1.85,0,0,0,1.26.33c1.41-.71,2.09-2.28,3.17-3.24l0,.08V106.6c.22,2-.16,4.37.33,6.33a3.58,3.58,0,0,0,3,1.59c6.62,0,13.19.06,19.87-.08l.39-.25a.69.69,0,0,0-.14-.93A30.8,30.8,0,0,0,342.74,113.06ZM330.32,96.52c.14-.2.36-.2.55-.28a38.35,38.35,0,0,1,5.8.19l-.08,7.4a58.1,58.1,0,0,1-6.19,0l-.14-.19Zm6.4,16.27-.13.14h-6l-.22-.14c0-2.36-.19-4.65-.06-6.85a.54.54,0,0,1,.39-.33,38,38,0,0,1,5.94.2l.13.13C336.64,108.34,336.92,110.67,336.72,112.79Zm0-18.47a30.29,30.29,0,0,1-6.18.13l-.14-.13V87.61c.08-.71.83-.33,1.24-.47,1.67,0,3.46,0,5,.06l.13.47C336.78,90,336.83,92.48,336.72,94.32Z"/><path class="cls-2" d="M146.08,13c.94,2.73-.57,5.38-2.26,6.79-5.57,2.73-11.61,4.53-17,7.55-10.66,2.07-20.66,5.75-31,8.29-4,.67-8.2-.56-10.46-3.77.56-2.45-2.93-4.24-.38-6.41,4.81-.47,8.49-1.7,13.58-1.51,5.19-4.25,11-4.81,17.64-5.66,1-1.51,2.83-1.32,4.06-2.26,2.82-2.27,6.6-3.12,8.86-6,3.21-2.64,7.45-2.17,11.51-1.6,1.88,1.32,4.62,2,5.47,4.53"/><path class="cls-2" d="M220.85,49c.57-2.08.94-4.34-.19-6.32-.19-1.23.57-2.17-.66-2.74-2.26-1.6-4.34,1-6.6,1.33-3,1.5-5.19,5.28-8.77,6.13-2.74,3.49-6.8,4.81-10.19,7.07a22.33,22.33,0,0,1-13.39-.75c-1-1.79-3.21-.85-4.53-2-3.21-2.07-7.45-2.07-9.72-5.65-1.41-2.55-5.56-2.55-4.81-6.14,1.42-1.5,3.4-1.79,5.29-2.26,6.5-1.23,13.58-.28,19.9-2.45,3.58-.94,7.35-1.79,10.85-3,1.31-1.41,4.15-.56,5.18-2.64a38.15,38.15,0,0,1,7.08-1.13c2-1.61,4.9-.66,6.79-2.55,3.87,0,6.79-2.55,10.85-2.26,3-3,7.73-1.8,11.32-3.4,5.28-1.6,11-5.66,17-2.45h2.46c4.05,1,9.33,1,11.32,5.19.28,2.73-1.61,5.09-2.74,7.45-3.87,2.26-10.28,3.68-14.24.47-4.72-3-10.47-1.23-15.38.19-1.32,1.51-3.59,1.51-4.34,3.68.19,2.26-.38,4.81.47,6.79,1.79,3.77-.57,7.54,1.13,11.32C235.66,58,237.17,65.13,237,71a169.9,169.9,0,0,0,2,26c.57,2.93,1.7,6.13,2.08,9.53,1.79,2.07.19,4.81,1.32,7.17-2,5-.1,12.17-5.85,14.71-2.93,3.21-8.58,2.64-12.26,1.42-2.55-.85-3.21-3.58-4.91-5,0-3.31-2.36-6.42-1.13-10.19C220.1,93,222,72.39,220.85,50.79"/><path class="cls-2" d="M118,38.62c1.89,2.08,2.73,4.53,3.87,7,2,2.16,4.24-.29,6.32-.48,3.39-3.49,7.73-8,13.77-7.45,2.45.94,5.56.85,6.79,3.4,1.13,1.6.85,3.49.28,5.18-2.17,4.44-7.54,6-11.32,8.87-3,1.6-7.07,2.74-8.58,6.13-.09,5.38,4.25,9.71,7.64,12.83,5.19,5.38,10,13.58,17,16.78,3.77,2.17,6.79,6.51,11.6,7.73,1,1,3,1.42,4.05,2.64,2.18.29,3.12,3.4,5.67,2.55,4.43,3,9,6,14.24,7,1.32,1,3.11,1.7,3.86,2.93,1.7.37,2.46,2.17,3.4,3.39.47,1.42-.75,2.64-1.13,3.87-2.64,2.55-6.79,1.51-9.72,3.21-9.33.28-19.8,2.73-29.05.84l-10.37-7.92c-6.6-8.11-11.61-17.07-18.11-25.27-.76-1.89-3.49-2.64-4.34-4.81-3.21-2.08-4.34-5.94-8.58-6.32A14.53,14.53,0,0,0,113,88.8c-1,2.26-.66,5.56-2,7.92-1.41,1.6-.85,4-2.26,5.47-.1,1.88-1.51,2.45-1.61,4.34-3.2,7.36-9.15,13.39-15.18,18.48-5.28,1-10,5-15.66,1.89a9.06,9.06,0,0,1-7.64-5.66c.75-1.69-1.42-2.26-1.42-3.67,1-2.27-2.07-4.44,1-5.85a4.08,4.08,0,0,1,2.45-2.93c2.74-.47,5.56-.56,7.74,1.8,1,.28,1.69-.57,2.45-1,.19-1.41,2.36-1.6,2.26-3.11a18.22,18.22,0,0,0,5.47-8.21c3.4-3.58,3.77-8.67,2.46-13.58-3.49-.28-7.17,1.51-10.85.29-2.46-1.79-6-2.73-7.27-5.47A11.79,11.79,0,0,1,69.49,73c1-2.82,5-2,7.26-2.44,2.08-.85,4.53-1,6.6-2.08,5.29-1,8.4-5.75,13.78-6.51,3.2-2,7.64-4.81,7.07-9.34-1.6-3.67.94-6.88.38-10.85a7.09,7.09,0,0,1,3.86-3.86c2-.57,4.25.28,6.32-.66.76,1.23,2.27.66,3.21,1.41"/><path class="cls-2" d="M276.87,65.53c4.32,4.69,9,10.41,6.1,17.36-.28,2.35-3.66,1.5-3.85,4-4.78.75-9.76.75-14.17-.85-.09-1.69-1.32-2.25-2.72-3.19-5.45-5-9.67-11.83-7.23-18.68,5.44-4.41,12.95-.38,19.15,0a5.3,5.3,0,0,0,2.72,1.32"/><path class="cls-2" d="M92.87,131.4v12.46h-1a13.32,13.32,0,0,0-4.26-7.48,10.77,10.77,0,0,0-7.07-2.6,10.33,10.33,0,0,0-6.06,1.94,11.32,11.32,0,0,0-4,5.06,23.41,23.41,0,0,0-1.64,8.91,30.35,30.35,0,0,0,1.2,8.8,11.66,11.66,0,0,0,3.75,6,10.26,10.26,0,0,0,6.6,2A12.79,12.79,0,0,0,86.43,165a21.26,21.26,0,0,0,5.84-5.12V163a19.37,19.37,0,0,1-6.17,4.57A18.43,18.43,0,0,1,78.59,169a21.23,21.23,0,0,1-10-2.3,16.07,16.07,0,0,1-6.76-6.63,18.76,18.76,0,0,1-2.38-9.21,19.34,19.34,0,0,1,2.64-9.76,18.76,18.76,0,0,1,7.12-7.16,19.06,19.06,0,0,1,9.53-2.54A21.3,21.3,0,0,1,86.57,133a11.85,11.85,0,0,0,3.05,1,2,2,0,0,0,1.44-.62,3.49,3.49,0,0,0,.79-2Z"/><path class="cls-2" d="M109,142.64a11.09,11.09,0,0,1,5.9,1.67,10.62,10.62,0,0,1,4.15,4.74,16.07,16.07,0,0,1,1.42,6.75,14.45,14.45,0,0,1-2.63,8.83,10.28,10.28,0,0,1-8.76,4.29,10,10,0,0,1-8.45-3.92,15.61,15.61,0,0,1,.07-18.39A9.86,9.86,0,0,1,109,142.64Zm.11,1.88a3,3,0,0,0-2.28,1c-.63.68-1,2-1.24,4s-.3,4.79-.3,8.36a36.84,36.84,0,0,0,.36,5.31,5.15,5.15,0,0,0,1.22,2.86,3,3,0,0,0,4.08.32,4.49,4.49,0,0,0,1.36-2.52,63.66,63.66,0,0,0,.51-10.19,25.68,25.68,0,0,0-.49-6.19,4.75,4.75,0,0,0-1.45-2.45A2.66,2.66,0,0,0,109.14,144.52Z"/><path class="cls-2" d="M134.27,143.39v3.25a14,14,0,0,1,3.71-3.11,8,8,0,0,1,3.73-.89,6.64,6.64,0,0,1,3.92,1.11,7,7,0,0,1,2.45,3.39,15.37,15.37,0,0,1,4-3.44,8.06,8.06,0,0,1,4-1.06,6.26,6.26,0,0,1,4,1.18,6.14,6.14,0,0,1,2.08,3,20.6,20.6,0,0,1,.59,5.8v10.15c0,1.91.16,3.09.5,3.56a3.11,3.11,0,0,0,2.12.9v1H152.81v-1a2.79,2.79,0,0,0,2.18-1.17,7.22,7.22,0,0,0,.47-3.29V152.11a20.46,20.46,0,0,0-.26-4.22,2.52,2.52,0,0,0-.82-1.34,2.07,2.07,0,0,0-1.31-.44,3.8,3.8,0,0,0-2.26.84,10.43,10.43,0,0,0-2.32,2.51v13.31a7.81,7.81,0,0,0,.44,3.37,2.66,2.66,0,0,0,2.29,1.09v1H138.64v-1a2.77,2.77,0,0,0,1.6-.52,2.23,2.23,0,0,0,.78-1.11,12.62,12.62,0,0,0,.19-2.83V152.11a19.35,19.35,0,0,0-.26-4.22,2.57,2.57,0,0,0-.87-1.32,2.07,2.07,0,0,0-1.31-.49,3.46,3.46,0,0,0-1.9.56,10.86,10.86,0,0,0-2.6,2.82v13.31a7.64,7.64,0,0,0,.51,3.46,2.62,2.62,0,0,0,2.12,1v1H124.37v-1a3,3,0,0,0,2.19-1c.29-.39.44-1.54.44-3.45v-14c0-1.88-.17-3-.51-3.5a3,3,0,0,0-2.12-.91v-1Z"/><path class="cls-2" d="M178.62,143.39v3.25a14,14,0,0,1,3.7-3.11,8,8,0,0,1,3.73-.89,6.7,6.7,0,0,1,3.93,1.11,7.06,7.06,0,0,1,2.44,3.39,15.7,15.7,0,0,1,4-3.44,8.06,8.06,0,0,1,4-1.06,6.31,6.31,0,0,1,4,1.18,6.18,6.18,0,0,1,2.07,3,20.6,20.6,0,0,1,.59,5.8v10.15c0,1.91.17,3.09.5,3.56a3.14,3.14,0,0,0,2.13.9v1H197.15v-1a2.76,2.76,0,0,0,2.18-1.17,7.08,7.08,0,0,0,.47-3.29V152.11a20.46,20.46,0,0,0-.26-4.22,2.46,2.46,0,0,0-.82-1.34,2.07,2.07,0,0,0-1.31-.44,3.8,3.8,0,0,0-2.26.84,10.63,10.63,0,0,0-2.32,2.51v13.31a7.6,7.6,0,0,0,.45,3.37,2.66,2.66,0,0,0,2.29,1.09v1H183v-1a2.77,2.77,0,0,0,1.6-.52,2.23,2.23,0,0,0,.78-1.11,12.41,12.41,0,0,0,.2-2.83V152.11a20,20,0,0,0-.26-4.22,2.69,2.69,0,0,0-.87-1.32,2.11,2.11,0,0,0-1.31-.49,3.41,3.41,0,0,0-1.9.56,10.53,10.53,0,0,0-2.6,2.82v13.31a7.64,7.64,0,0,0,.51,3.46,2.59,2.59,0,0,0,2.11,1v1H168.71v-1a3,3,0,0,0,2.19-1c.29-.39.44-1.54.44-3.45v-14c0-1.88-.17-3-.51-3.5a3,3,0,0,0-2.12-.91v-1Z"/><path class="cls-2" d="M224.34,142.64a11.14,11.14,0,0,1,5.9,1.67,10.6,10.6,0,0,1,4.14,4.74,15.92,15.92,0,0,1,1.42,6.75,14.45,14.45,0,0,1-2.62,8.83,10.3,10.3,0,0,1-8.76,4.29A10,10,0,0,1,216,165a14.66,14.66,0,0,1-3-9.1,14.83,14.83,0,0,1,3-9.29A9.87,9.87,0,0,1,224.34,142.64Zm.1,1.88a3,3,0,0,0-2.27,1c-.63.68-1,2-1.25,4s-.3,4.79-.3,8.36a35.41,35.41,0,0,0,.37,5.31,5.08,5.08,0,0,0,1.22,2.86,2.87,2.87,0,0,0,2.13,1,2.91,2.91,0,0,0,1.95-.66,4.54,4.54,0,0,0,1.35-2.52,62.06,62.06,0,0,0,.52-10.19,25.68,25.68,0,0,0-.49-6.19,4.75,4.75,0,0,0-1.46-2.45A2.65,2.65,0,0,0,224.44,144.52Z"/><path class="cls-2" d="M249.42,143.39v3.2a14.31,14.31,0,0,1,3.59-3,7.5,7.5,0,0,1,3.69-.94,5.78,5.78,0,0,1,3.92,1.34,6.37,6.37,0,0,1,2.08,3.33,25.86,25.86,0,0,1,.42,5.81v9.65q0,2.86.51,3.57a2.9,2.9,0,0,0,2.11.89v1H253.45v-1a2.59,2.59,0,0,0,2-1.17,7.92,7.92,0,0,0,.41-3.29v-11a19,19,0,0,0-.23-3.85,2.33,2.33,0,0,0-.8-1.23,1.9,1.9,0,0,0-1.23-.44q-2.24,0-4.16,3.26v13.29a7.51,7.51,0,0,0,.51,3.53,2.51,2.51,0,0,0,1.88.93v1h-12.3v-1a3,3,0,0,0,2.19-1c.29-.39.44-1.54.44-3.45v-14c0-1.88-.17-3-.51-3.5a3,3,0,0,0-2.12-.91v-1Z"/><path class="cls-2" d="M310.49,132.22v1a3.31,3.31,0,0,0-1.66.55,4,4,0,0,0-1.2,1.47c-.1.21-.65,1.57-1.64,4.1L295,169h-1l-8.73-23.17L275.58,169h-1L263,139.64a33.6,33.6,0,0,0-2.46-5.36,3.2,3.2,0,0,0-2.37-1.08v-1h15.28v1a4.12,4.12,0,0,0-2.45.57,1.59,1.59,0,0,0-.61,1.28,15.81,15.81,0,0,0,1.27,4.27l6.92,17.46,5.53-13.64-1.45-3.82a29.69,29.69,0,0,0-1.85-4.17,4,4,0,0,0-1.5-1.5,5.4,5.4,0,0,0-2.48-.45v-1h17.08v1a9.18,9.18,0,0,0-2.57.29,1.66,1.66,0,0,0-1.17,1.62,18.74,18.74,0,0,0,1.17,3.74l6.42,17,5.74-15.41a31.25,31.25,0,0,0,1.12-3.26,6.93,6.93,0,0,0,.21-1.62,2.13,2.13,0,0,0-.73-1.7,4.58,4.58,0,0,0-2.78-.68v-1Z"/><path class="cls-2" d="M327.8,154.89H314.46a13,13,0,0,0,2.58,7.8,5.38,5.38,0,0,0,4.31,2.2,4.87,4.87,0,0,0,2.84-.88,11.25,11.25,0,0,0,2.72-3.2l.89.58a14.79,14.79,0,0,1-4.37,5.82,9.94,9.94,0,0,1-13.72-2.53,15.2,15.2,0,0,1-2.24-8.49q0-6.19,3.29-9.88a10,10,0,0,1,7.71-3.67,8.3,8.3,0,0,1,6.41,3.09Q327.6,148.82,327.8,154.89Zm-6.4-1.77a25.26,25.26,0,0,0-.45-5.87,4.81,4.81,0,0,0-1.42-2.41,2.11,2.11,0,0,0-1.45-.48,2.54,2.54,0,0,0-2.21,1.36,11.79,11.79,0,0,0-1.54,6.47v.93Z"/><path class="cls-2" d="M344.25,164.52q-4.44,4-8,4a4.67,4.67,0,0,1-3.45-1.39,4.79,4.79,0,0,1-1.38-3.49,6.88,6.88,0,0,1,2.39-5.11q2.39-2.26,10.42-6V150a12.3,12.3,0,0,0-.3-3.54,2.76,2.76,0,0,0-1.13-1.27,3.25,3.25,0,0,0-1.87-.54,4.75,4.75,0,0,0-2.78.76,1.37,1.37,0,0,0-.68,1.12,2.38,2.38,0,0,0,.73,1.38,3.42,3.42,0,0,1,1,2.2,3,3,0,0,1-.95,2.22,3.46,3.46,0,0,1-2.48.91,3.91,3.91,0,0,1-2.74-1,3.1,3.1,0,0,1-1.11-2.36,5.59,5.59,0,0,1,1.48-3.64,9.37,9.37,0,0,1,4.14-2.67,16.52,16.52,0,0,1,5.51-.93,9,9,0,0,1,5.47,1.5,7,7,0,0,1,2.61,3.25,21.49,21.49,0,0,1,.37,5.12v9.62a11.07,11.07,0,0,0,.12,2.14,1.33,1.33,0,0,0,.39.65,1,1,0,0,0,.6.22c.45,0,.91-.34,1.38-1l.78.64a9.54,9.54,0,0,1-2.69,2.85,5.77,5.77,0,0,1-3.16.89,4.84,4.84,0,0,1-3.25-1A4.57,4.57,0,0,1,344.25,164.52Zm0-1.93v-8.31a15.42,15.42,0,0,0-4.68,4,5,5,0,0,0-1,2.89,3.07,3.07,0,0,0,.86,2.14,2.32,2.32,0,0,0,1.82.72A5,5,0,0,0,344.25,162.59Z"/><path class="cls-2" d="M367,132.22V163c0,1.75.2,2.87.6,3.35a3.19,3.19,0,0,0,2.34.84v1H356.78v-1a3.13,3.13,0,0,0,2.39-1c.35-.41.52-1.48.52-3.23V137.36c0-1.73-.19-2.84-.59-3.33a3.2,3.2,0,0,0-2.32-.83v-1Z"/><path class="cls-2" d="M381.89,134.31v9.08h5.77V146h-5.77v15.31a11.78,11.78,0,0,0,.2,2.76,2,2,0,0,0,.69,1,1.49,1.49,0,0,0,.91.39c1.12,0,2.19-.88,3.19-2.63l.78.59q-2.1,5.09-6.84,5.09a6,6,0,0,1-3.91-1.32,5.85,5.85,0,0,1-2-2.92,25.9,25.9,0,0,1-.26-4.88V146h-3.17v-.93a33.3,33.3,0,0,0,5.58-5,30.4,30.4,0,0,0,4-5.81Z"/><path class="cls-2" d="M399.9,132.22v14.35a14.81,14.81,0,0,1,3.67-3,7.27,7.27,0,0,1,3.45-.89,6,6,0,0,1,3.92,1.32,6.34,6.34,0,0,1,2.15,3.12,23.44,23.44,0,0,1,.54,6v9.68c0,1.89.17,3.07.52,3.54a2.93,2.93,0,0,0,2.1.89v1H403.93v-1a2.78,2.78,0,0,0,1.95-1.06,7.41,7.41,0,0,0,.47-3.37V151.74a17.88,17.88,0,0,0-.24-3.86,2.33,2.33,0,0,0-.79-1.22,1.94,1.94,0,0,0-1.26-.44,3.37,3.37,0,0,0-2,.73,9.39,9.39,0,0,0-2.13,2.56V162.8a8.28,8.28,0,0,0,.39,3.31,2.57,2.57,0,0,0,2,1.12v1H390v-1a3,3,0,0,0,2.18-1c.3-.39.44-1.53.44-3.42V137.6c0-1.88-.17-3-.5-3.5a3.07,3.07,0,0,0-2.12-.9v-1Z"/></svg>